PathFileType	4	(X/Y/Z)	C:/Users/opensim2020/Desktop/walking_exp_matlab/subject06_walking20_straight_01.trc																																																																																																																															
DataRate	CameraRate	NumFrames	NumMarkers	Units	OrigDataRate	OrigDataStartFrame	OrigNumFrames																																																																																																																											
100	100	4	43	mm	100	812	127																																																																																																																											
Frame#	Time	LFHD			RFHD			LBHD			RBHD			C7			T10			CLAV			STRN			RBAK			LSHO			LUPA			LELB			LFRM			LWRA			LWRB			LFIN			RSHO			RUPA			RELB			RFRM			RWRA			RWRB			RFIN			LASI			RASI			LPSI			RPSI			LTHI			LKNE			LTIB			LANK			LHEE			LTOE			RTHI			RKNE			RTIB			RANK			RHEE			RTOE			*39			*40			*41			*42		
		X1	Y1	Z1	X2	Y2	Z2	X3	Y3	Z3	X4	Y4	Z4	X5	Y5	Z5	X6	Y6	Z6	X7	Y7	Z7	X8	Y8	Z8	X9	Y9	Z9	X10	Y10	Z10	X11	Y11	Z11	X12	Y12	Z12	X13	Y13	Z13	X14	Y14	Z14	X15	Y15	Z15	X16	Y16	Z16	X17	Y17	Z17	X18	Y18	Z18	X19	Y19	Z19	X20	Y20	Z20	X21	Y21	Z21	X22	Y22	Z22	X23	Y23	Z23	X24	Y24	Z24	X25	Y25	Z25	X26	Y26	Z26	X27	Y27	Z27	X28	Y28	Z28	X29	Y29	Z29	X30	Y30	Z30	X31	Y31	Z31	X32	Y32	Z32	X33	Y33	Z33	X34	Y34	Z34	X35	Y35	Z35	X36	Y36	Z36	X37	Y37	Z37	X38	Y38	Z38	X39	Y39	Z39	X40	Y40	Z40	X41	Y41	Z41	X42	Y42	Z42	X43	Y43	Z43
																																																																																																																																		
80	0.79	144.74025	1640.86731	-1078.31396	131.73358	1624.48193	-947.81757	14.10723	1585.11584	-1095.01807	2.31824	1573.38916	-966.85443	9.29164	1427.59448	-1041.68103	-33.03278	1100.72864	-1021.63538	116.75106	1346.84338	-1032.1405	151.17757	1171.17126	-1038.08228	-73.44927	1260.52576	-967.43378	71.46223	1380.52002	-1196.27588	97.08423	1185.80286	-1278.79749	118.06908	1076.3949	-1300.31445	217.0006	964.21588	-1317.80273	328.35913	908.44336	-1265.11902	287.35019	868.11597	-1306.46204	369.68936	832.73145	-1303.8595	59.74593	1382.25305	-874.63037	-28.98052	1202.69397	-790.68451	-51.0541	1081.39478	-777.25104	-72.6087	963.03644	-757.68134	-62.42691	808.63934	-787.12433	-110.34566	830.55511	-745.52441	-103.2878	745.55701	-743.35376	133.67928	936.73529	-1136.11523	145.83701	944.05212	-916.13043	-21.0616	968.88593	-1095.59094	-3.81799	966.40845	-928.29962	25.92708	629.49445	-1182.81519	-7.32049	467.47675	-1156.85352	-129.25053	237.48474	-1144.81909	-196.89859	79.53098	-1097.15515	-243.62456	76.50145	-1053.8147	-61.05849	33.49556	-1087.73267	174.93823	620.36261	-849.56433	236.36517	511.2854	-880.97827	283.8891	256.20963	-881.43616	340.94968	78.54269	-922.73901	314.40833	44.522	-970.9776	493.76291	85.51927	-914.38879	38.63038	1675.39941	-1028.69189	NaN	NaN	NaN	NaN	NaN	NaN	NaN	NaN	NaN
81	0.8	158.46356	1638.65466	-1077.03015	145.39662	1622.18896	-946.62061	27.88098	1582.5835	-1093.94739	16.03418	1570.87659	-965.69293	23.31342	1425.1156	-1040.58984	-18.77368	1098.03723	-1021.03326	130.94203	1344.40442	-1031.14661	165.40576	1168.76428	-1037.5979	-59.19279	1257.53345	-966.66541	85.50163	1378.4281	-1195.28955	112.63676	1184.01587	-1278.16797	134.84631	1074.97058	-1299.63037	236.87195	965.91907	-1316.98486	349.80151	914.15326	-1263.91309	310.37955	872.29926	-1305.0741	393.92447	840.05487	-1302.44165	73.80177	1379.4834	-873.58575	-15.76931	1200.2168	-790.09235	-38.09054	1078.95947	-776.49542	-60.37516	960.73309	-756.88922	-49.72315	806.52325	-784.9928	-99.06077	828.39233	-744.72058	-92.57156	743.43005	-742.53357	147.85345	934.69092	-1136.18225	161.7213	942.04962	-916.3996	-6.7799	966.01886	-1094.62732	11.62838	963.73676	-927.43463	37.57711	628.13617	-1182.89185	1.87047	466.38507	-1157.06067	-124.57487	238.63055	-1144.74329	-195.66284	82.04913	-1097.34058	-242.47656	80.01838	-1054.02954	-61.09293	33.2332	-1087.52014	190.96895	617.95111	-848.18866	251.37236	507.98441	-879.83246	306.14157	255.15114	-881.25916	370.45523	80.09956	-922.81293	345.35599	45.42684	-971.24176	523.49951	91.86177	-913.70905	52.19539	1672.84924	-1027.54639	NaN	NaN	NaN	NaN	NaN	NaN	NaN	NaN	NaN
82	0.81	172.25955	1636.48523	-1075.79736	159.01007	1619.79114	-945.30743	41.68003	1580.05005	-1092.72876	29.87559	1568.20532	-964.5304	37.43229	1422.61023	-1039.40198	-4.18228	1095.34583	-1020.37012	145.30093	1341.98926	-1030.10242	179.9299	1166.4801	-1037.0293	-44.9199	1254.6394	-965.81555	99.63183	1376.35522	-1194.21899	128.09036	1182.26208	-1277.33118	151.76913	1073.73987	-1299.33167	256.30621	967.63385	-1316.052	370.65259	919.72449	-1262.60535	332.62537	876.37915	-1303.63855	417.19174	847.09485	-1300.90149	87.98358	1376.69409	-872.44275	-2.07636	1197.64661	-789.37	-24.79047	1076.44788	-775.61975	-47.59032	958.30957	-755.97205	-37.45276	804.09039	-783.71039	-87.17271	826.25409	-744.01373	-81.02338	741.21429	-741.56134	162.24529	932.7002	-1136.27698	177.86961	940.12537	-916.57025	7.74726	963.13513	-1093.55383	27.35331	961.21106	-926.49054	49.69731	626.58069	-1182.94971	11.9792	465.05984	-1157.10803	-119.24774	239.99457	-1144.69409	-194.09492	84.94209	-1097.64319	-240.90976	83.95016	-1054.49072	-60.79657	33.21858	-1087.37842	207.83676	616.06702	-847.06232	266.73611	504.94138	-878.47571	327.28824	254.22871	-880.97986	397.03278	81.43603	-922.70996	373.03952	46.24969	-971.11353	550.35992	97.24702	-914.10522	65.78759	1670.35315	-1026.26563	NaN	NaN	NaN	NaN	NaN	NaN	NaN	NaN	NaN
83	0.82	186.00885	1634.54871	-1074.32263	172.67856	1617.46326	-943.81873	55.47254	1577.63928	-1091.30298	43.68811	1565.65674	-963.16101	51.5206	1420.20752	-1038.0376	10.56598	1092.7948	-1019.7569	159.64973	1339.76062	-1028.94006	194.56935	1164.31824	-1036.35107	-30.40512	1251.77722	-964.96124	113.8071	1374.20581	-1193.00647	143.54843	1180.58594	-1276.41687	168.1218	1072.43616	-1298.56555	275.31525	969.32825	-1315.14954	390.70886	924.90759	-1261.21606	354.03885	880.31268	-1302.07898	439.55292	853.854	-1299.33179	102.25177	1373.96289	-871.18628	11.74253	1195.02991	-788.5155	-11.14613	1073.85828	-774.61945	-34.43281	955.8089	-754.99292	-24.72684	801.55359	-782.43488	-74.43318	824.00183	-742.72223	-68.89479	738.94824	-740.38367	176.80467	930.68671	-1136.38416	194.11288	938.21118	-916.67468	22.53158	960.29523	-1092.45764	43.2615	958.87469	-925.46259	62.35096	624.77472	-1182.8009	23.11491	463.54486	-1157.03735	-113.33884	241.40501	-1144.80615	-192.07899	88.32791	-1098.19666	-238.89294	88.4879	-1055.3219	-60.45326	33.18649	-1087.18225	225.57024	614.55664	-846.32465	282.22534	502.75708	-877.71161	347.23175	253.57483	-880.4494	420.39691	82.07962	-922.43848	397.10565	46.13238	-970.45099	573.76349	101.34132	-914.89716	79.25702	1667.89441	-1024.79822	NaN	NaN	NaN	NaN	NaN	NaN	NaN	NaN	NaN
